<svg width="24" height="24" viewBox="0 0 24 24" fill="none" xmlns="http://www.w3.org/2000/svg"><g clip-path="url(#clip0_4188_29119)"><g clip-path="url(#clip1_4188_29119)"><path d="M12.0001 2C7.09917 2 3.11105 5.98773 3.11105 10.8891H2V16.4448H5.33316V10.8891C5.33316 7.21236 8.32313 4.22239 11.9999 4.22239C15.6766 4.22239 18.6666 7.21236 18.6666 10.8891V15.8501L12.7746 19.7777H10.8892V22H13.4482L20.8891 17.039V16.4445H22.0002V10.8888H20.8891C20.8891 5.98783 16.9012 2.00019 12 2.00019L12.0001 2Z" fill="#0B3275" fill-opacity="0.5"></path><path d="M17.5558 11.9991C17.5558 8.93585 15.0636 6.44336 12.0001 6.44336C8.93682 6.44336 6.44434 8.93556 6.44434 11.9991C6.44434 15.0624 8.93654 17.5548 12.0001 17.5548C15.0633 17.5548 17.5558 15.0624 17.5558 11.9991Z" fill="#0B3275" fill-opacity="0.5"></path></g></g><defs><clipPath id="clip0_4188_29119"><rect width="24" height="24" fill="white"></rect></clipPath><clipPath id="clip1_4188_29119"><rect width="24" height="24" fill="white"></rect></clipPath></defs></svg>