<svg width="24" height="24" viewBox="0 0 24 24" fill="none" xmlns="http://www.w3.org/2000/svg"><g clip-path="url(#clip0_4188_29111)"><path d="M19.2058 14.6902L15.6121 15.6789C15.6121 15.7661 15.6121 15.8534 15.6121 15.9406C15.5485 16.8711 14.7853 17.6563 13.7676 17.8308L13.6086 17.8598C12.2411 18.1215 10.8736 18.2379 9.50613 18.296L8.39306 18.3251C8.23405 18.3251 8.04324 18.2669 7.91603 18.1506C7.78882 18.0343 7.72522 17.8889 7.72522 17.7435C7.72522 17.569 7.78882 17.4236 7.91603 17.3073C8.04324 17.191 8.20225 17.1329 8.36126 17.1329L9.53794 17.1038C10.81 17.0747 12.0503 16.9584 13.2906 16.7257L13.5132 16.6967C13.9584 16.6094 14.2765 16.2896 14.3083 15.8824C14.3083 15.6498 14.2447 15.4172 14.0538 15.2427C13.863 15.0682 13.6404 14.9519 13.3542 14.9519L7.56621 14.632C6.93016 14.603 6.29412 14.7774 5.78529 15.0973L0.28352 18.9358C-0.0663031 19.1975 -0.0981054 19.6627 0.219916 19.9535L3.30472 22.7742C3.55914 23.0068 3.97257 23.0359 4.29059 22.8324L5.62628 21.9018C5.84889 21.7564 6.10331 21.6983 6.38953 21.6983L10.7464 22.1345C11.5733 22.2217 12.4319 21.9891 13.0998 21.5238L20.2871 16.5222C20.5415 16.3477 20.7005 16.086 20.7323 15.7661C20.7641 15.4753 20.6687 15.1845 20.4461 14.9519C20.0962 14.6902 19.651 14.5739 19.2058 14.6902Z" fill="#0B3275" fill-opacity="0.4"></path><path d="M21.1772 3H5.14895C4.60832 3 4.16309 3.40711 4.16309 3.90145V12.4507C4.16309 12.9451 4.60832 13.3522 5.14895 13.3522H21.1772C21.7179 13.3522 22.1631 12.9451 22.1631 12.4507V3.90145C22.1631 3.40711 21.7179 3 21.1772 3ZM20.7638 10.357C19.8097 10.5315 19.0465 11.2003 18.8875 12.0727H7.47051C7.27969 11.2003 6.54824 10.5024 5.59418 10.357V5.99515C6.54824 5.82068 7.3115 5.15186 7.47051 4.27948H18.8875C19.0783 5.15186 19.8097 5.84976 20.7638 5.99515V10.357Z" fill="#0B3275" fill-opacity="0.4"></path><path d="M13.1629 5.35156C11.5023 5.35156 10.1631 6.69085 10.1631 8.35156C10.1631 10.0123 11.5023 11.3516 13.1629 11.3516C14.8235 11.3516 16.1627 10.0123 16.1627 8.35156C16.1895 6.69085 14.8235 5.35156 13.1629 5.35156ZM13.4843 10.0391V10.4408C13.4843 10.4944 13.4307 10.548 13.3772 10.548H12.9754C12.9218 10.548 12.8683 10.4944 12.8683 10.4408V10.0658C12.4397 10.0391 12.1183 9.69085 12.0647 9.28906C12.0647 9.26228 12.0647 9.23549 12.0915 9.2087C12.1183 9.18192 12.1451 9.18192 12.1719 9.18192H12.6004C12.654 9.18192 12.6808 9.20871 12.7076 9.26228C12.7343 9.36942 12.8415 9.47656 12.9486 9.47656H13.3236C13.5379 9.47656 13.6986 9.31585 13.7254 9.12835C13.7254 9.02121 13.6986 8.91406 13.6182 8.83371C13.5379 8.75335 13.4307 8.69978 13.3236 8.69978H13.0558C12.5201 8.69978 12.0647 8.29799 12.0112 7.78906C11.9576 7.25335 12.3326 6.77121 12.8683 6.69085V6.28906C12.8683 6.23549 12.9218 6.18192 12.9754 6.18192H13.3772C13.4307 6.18192 13.4843 6.23549 13.4843 6.28906V6.66406C13.9128 6.69085 14.2343 7.03906 14.2878 7.44085C14.2878 7.46763 14.2878 7.49442 14.261 7.52121C14.2343 7.54799 14.2075 7.54799 14.1807 7.54799H13.7521C13.6986 7.54799 13.6718 7.5212 13.645 7.46763C13.6182 7.36049 13.5111 7.25335 13.4039 7.25335H13.029C12.8147 7.25335 12.654 7.41406 12.6272 7.60156C12.6272 7.7087 12.654 7.81585 12.7343 7.89621C12.8147 7.97656 12.9218 8.03013 13.029 8.03013H13.3504C13.645 8.03013 13.9128 8.16406 14.1003 8.35156C14.2878 8.56585 14.395 8.83371 14.3682 9.12835C14.2878 9.58371 13.9396 9.95871 13.4843 10.0391Z" fill="#0B3275" fill-opacity="0.4"></path><path d="M7.47083 7.44922C7.0256 7.44922 6.67578 7.76909 6.67578 8.1762C6.67578 8.58331 7.0256 8.90318 7.47083 8.90318C7.91606 8.90318 8.26589 8.58331 8.26589 8.1762C8.26589 7.76909 7.91606 7.44922 7.47083 7.44922Z" fill="#0B3275" fill-opacity="0.4"></path><path d="M18.8556 7.44922C18.4104 7.44922 18.0605 7.76909 18.0605 8.1762C18.0605 8.58331 18.4104 8.90318 18.8556 8.90318C19.3008 8.90318 19.6507 8.58331 19.6507 8.1762C19.6825 7.76909 19.3008 7.44922 18.8556 7.44922Z" fill="#0B3275" fill-opacity="0.4"></path><path d="M13.1608 5.35156C12.0421 5.35156 11.1631 6.67156 11.1631 8.35156C11.1631 10.0316 12.0421 11.3516 13.1608 11.3516C14.2795 11.3516 15.1584 10.0316 15.1584 8.35156C15.2383 6.67156 14.2795 5.35156 13.1608 5.35156Z" fill="#0B3275" fill-opacity="0.4"></path><line x1="22.7071" y1="1.70711" x2="0.707108" y2="23.7071" stroke="#0B3275" stroke-opacity="0.4" stroke-width="2"></line></g><defs><clipPath id="clip0_4188_29111"><rect width="24" height="24" fill="white"></rect></clipPath></defs></svg>