<svg width="24" height="24" viewBox="0 0 24 24" fill="none" xmlns="http://www.w3.org/2000/svg"><path d="M22.9979 9.66062C22.982 8.74491 22.2344 8.01327 21.3187 8.01098C21.146 8.01098 20.9733 8.01553 20.7984 8.01553H18.2944C18.3148 7.99053 18.3353 7.96554 18.3534 7.94054C18.842 7.30658 19.1056 6.53858 19.1169 5.73647C19.1169 5.72965 19.1124 5.72284 19.1124 5.71375V5.7092C19.1124 5.70239 19.1169 5.69557 19.1169 5.68875C19.1055 4.64125 18.6397 3.58922 17.8217 2.92572C17.3923 2.57807 16.9128 2.30996 16.3743 2.17816C15.8244 2.04183 15.2586 2.03956 14.7065 2.15089C13.8294 2.32813 13.0228 2.86891 12.5001 3.59602C12.3638 3.40289 12.2093 3.22338 12.032 3.05979C11.6276 2.68487 11.1504 2.40538 10.6255 2.23495C9.61663 1.90775 8.44643 2.05999 7.55798 2.64168C6.52868 3.31653 5.89471 4.45494 5.88109 5.68646C5.88109 5.69328 5.88563 5.70237 5.88563 5.70918C5.88563 5.716 5.89018 5.72282 5.89018 5.72964V5.73191C5.89018 6.56128 6.19011 7.37473 6.70363 8.01322H4.31549C4.11326 8.01322 3.91104 8.00868 3.70879 8.00868C2.95213 8.00868 2.2659 8.48583 2.06144 9.22886C1.98191 9.51289 2.00236 9.81283 2.00236 10.1037V20.7923C2.00236 20.8604 2.00009 20.9286 2.00463 20.9968C2.02735 21.5466 2.32274 22.0579 2.78854 22.351C3.12029 22.5601 3.48612 22.6055 3.8633 22.6055H21.0822C21.3731 22.6055 21.6571 22.601 21.9343 22.4896C22.4388 22.2874 22.8319 21.8534 22.9546 21.3194C22.9909 21.1627 23 21.0036 23 20.8445V9.66981C22.9977 9.66754 22.9977 9.663 22.9977 9.66072L22.9979 9.66062ZM13.1818 5.67969C13.1841 5.5888 13.1886 5.49791 13.1977 5.40702C13.2318 5.21161 13.2841 5.02074 13.3545 4.83443C13.4204 4.69128 13.4977 4.5504 13.5863 4.4186C13.609 4.38452 13.634 4.35271 13.6567 4.32089C13.6613 4.31635 13.6635 4.3118 13.6681 4.30726C13.7294 4.23455 13.793 4.16411 13.8589 4.09821C13.9226 4.03459 13.9885 3.97552 14.0589 3.91871L14.0612 3.91644C14.0566 3.91871 14.0544 3.92098 14.0498 3.92325C14.0021 3.95734 14.0407 3.92553 14.0771 3.90053C14.0703 3.90735 14.0657 3.91189 14.0612 3.91644C14.0975 3.89144 14.1339 3.86418 14.1725 3.83918C14.3043 3.75284 14.4406 3.67558 14.5861 3.60969C14.7747 3.53697 14.9701 3.48471 15.17 3.45063C15.3745 3.43018 15.5813 3.43018 15.7858 3.45063C15.7608 3.44609 15.7335 3.44154 15.7085 3.43927C15.7699 3.44836 15.829 3.45517 15.8903 3.46426C15.8562 3.45972 15.8222 3.45517 15.7881 3.4529C15.9858 3.48699 16.1789 3.53925 16.3652 3.60968C16.5061 3.67331 16.6424 3.74829 16.7697 3.83464C16.806 3.85736 16.8401 3.88235 16.8765 3.90962C16.8606 3.89826 16.8379 3.88008 16.8333 3.87554C16.8356 3.87781 16.8492 3.88917 16.881 3.91189C16.8969 3.92326 16.9083 3.93234 16.9151 3.93916C16.906 3.93234 16.8969 3.92553 16.8901 3.92098C16.8856 3.91644 16.8788 3.91417 16.8742 3.90962C16.8765 3.91189 16.8788 3.91417 16.881 3.91417C16.9537 3.97324 17.0242 4.03687 17.0901 4.10504C17.1537 4.16866 17.2128 4.23455 17.2696 4.30272C17.2719 4.30499 17.2741 4.30726 17.2764 4.30954C17.2719 4.30499 17.2673 4.29817 17.265 4.29363C17.2559 4.28 17.2514 4.27318 17.2491 4.27091C17.2514 4.27318 17.2696 4.29817 17.2878 4.3209L17.2764 4.30953C17.3014 4.34362 17.3264 4.37997 17.3514 4.41406C17.44 4.54585 17.5173 4.68672 17.5831 4.82988C17.6559 5.01848 17.7081 5.21162 17.7422 5.40929C17.7399 5.37521 17.7354 5.34112 17.7308 5.30704C17.7399 5.36839 17.7467 5.42747 17.7558 5.48882C17.7513 5.46382 17.7467 5.43656 17.7445 5.41156C17.7536 5.51381 17.7604 5.61606 17.7604 5.71831C17.7604 5.82056 17.7536 5.92282 17.7445 6.02506C17.749 6.00007 17.7536 5.9728 17.7581 5.94781C17.749 6.00916 17.7422 6.06823 17.7331 6.12959C17.7377 6.0955 17.7422 6.06142 17.7445 6.02734C17.7104 6.22502 17.6581 6.42043 17.5854 6.60674C17.5218 6.74762 17.4468 6.88168 17.3627 7.00893C17.3377 7.04529 17.3128 7.08164 17.2855 7.118C17.2923 7.10891 17.3014 7.09755 17.3082 7.08846C17.3014 7.09527 17.2946 7.10664 17.2832 7.12254C17.2787 7.12936 17.2741 7.13618 17.2696 7.14072C17.2718 7.13845 17.2741 7.1339 17.2764 7.13163C17.2787 7.12936 17.2809 7.12481 17.2832 7.12254C17.2241 7.19525 17.1605 7.26569 17.0923 7.33158C17.0287 7.39521 16.9628 7.45428 16.8947 7.51336C16.8924 7.51564 16.8901 7.51791 16.8878 7.52018C16.8924 7.51564 16.8992 7.51109 16.9037 7.50882C16.9174 7.49973 16.9242 7.49518 16.9265 7.49291C16.9242 7.49519 16.8992 7.51564 16.8765 7.53154C16.881 7.527 16.8856 7.52245 16.8878 7.52018C16.8538 7.54517 16.8197 7.57017 16.7833 7.59516C16.6515 7.68378 16.5107 7.76104 16.3652 7.8292C16.1857 7.89737 16.0017 7.94963 15.8154 7.98145C15.5904 8.00417 15.3632 7.99962 15.136 7.99962H13.1819V6.18865C13.1819 6.01369 13.1773 5.84554 13.1819 5.67967L13.1818 5.67969ZM7.24441 5.48427C7.2535 5.42292 7.26031 5.36385 7.2694 5.3025C7.26486 5.33658 7.26031 5.37066 7.25804 5.40475C7.29213 5.20706 7.34439 5.01392 7.4171 4.82534C7.48072 4.68446 7.5557 4.5504 7.63978 4.42088C7.66477 4.38452 7.68977 4.34817 7.71476 4.31409C7.70567 4.32545 7.69431 4.34135 7.68522 4.35044C7.68977 4.34362 7.70113 4.32999 7.71703 4.30954C7.72158 4.30272 7.72612 4.29591 7.73067 4.29136C7.7284 4.29364 7.72612 4.29818 7.72385 4.30045C7.72158 4.305 7.71703 4.30954 7.71249 4.31409C7.71476 4.31181 7.71476 4.30954 7.71703 4.30954C7.77611 4.23683 7.83973 4.16639 7.9079 4.1005C7.97152 4.03688 8.03742 3.9778 8.10559 3.91872C8.10786 3.91645 8.11013 3.91417 8.1124 3.9119C8.10786 3.91645 8.10104 3.91872 8.0965 3.92326C8.08287 3.93235 8.07605 3.9369 8.07378 3.93917C8.07832 3.93462 8.10104 3.91872 8.12376 3.90054C8.11922 3.90509 8.11695 3.90736 8.1124 3.9119C8.14649 3.88691 8.18057 3.86191 8.21693 3.83692C8.34872 3.7483 8.48959 3.67104 8.635 3.60288C8.82132 3.53017 9.01446 3.47791 9.21216 3.44382C9.17807 3.4461 9.14399 3.45064 9.10991 3.45518C9.17126 3.4461 9.23034 3.43928 9.29169 3.43019C9.26669 3.43473 9.23943 3.43701 9.21443 3.44155C9.41893 3.4211 9.6257 3.4211 9.83019 3.44155C10.0301 3.47564 10.2256 3.5279 10.4142 3.60061C10.5528 3.66423 10.6868 3.73694 10.8141 3.82101C10.855 3.84828 10.8936 3.87555 10.9322 3.90282C11.005 3.9619 11.0731 4.02324 11.139 4.08914C11.2026 4.15276 11.264 4.21866 11.3208 4.28682C11.3367 4.305 11.3526 4.32545 11.3685 4.34363C11.3731 4.34818 11.3753 4.35272 11.3799 4.35499C11.3776 4.35272 11.3753 4.34818 11.3753 4.3459C11.3867 4.36181 11.3935 4.36863 11.3799 4.35499C11.3912 4.37317 11.4003 4.38908 11.4049 4.39589C11.4958 4.53222 11.5776 4.67538 11.6457 4.82306C11.6344 4.79352 11.623 4.76171 11.6094 4.73217L11.6775 4.89577C11.6662 4.87305 11.6571 4.84806 11.6457 4.82533C11.7162 5.00939 11.7684 5.20025 11.8002 5.3934C11.8093 5.48656 11.8139 5.57972 11.8161 5.67288C11.8184 5.80468 11.8161 5.93873 11.8161 6.0728V7.98149H9.96881C9.70978 7.98149 9.45073 7.99058 9.194 7.96559C9.00313 7.93151 8.81681 7.87925 8.63504 7.81108C8.49416 7.74745 8.35782 7.67247 8.23058 7.58612C8.19649 7.5634 8.16241 7.53841 8.12833 7.51341C8.14423 7.52477 8.16468 7.54295 8.16696 7.54522C8.16468 7.54295 8.15105 7.53386 8.11924 7.50887C8.11015 7.50205 8.10106 7.49523 8.09652 7.49069C8.10106 7.49523 8.10788 7.49751 8.11015 7.50205C8.11697 7.50659 8.12151 7.51114 8.12833 7.51568C8.12379 7.51341 8.12151 7.51114 8.11924 7.50887C8.04653 7.44979 7.97609 7.38617 7.9102 7.318C7.84658 7.25438 7.7875 7.18848 7.73069 7.12031C7.72842 7.11804 7.72615 7.11577 7.72388 7.1135C7.69888 7.07941 7.67389 7.04306 7.64889 7.0067C7.56027 6.87491 7.48302 6.73631 7.41712 6.59088C7.34441 6.40228 7.29215 6.20914 7.25807 6.00918C7.26034 6.04327 7.26488 6.07735 7.26943 6.11143C7.26034 6.05008 7.25352 5.99101 7.24444 5.92965C7.24898 5.95465 7.25352 5.98191 7.25807 6.00691C7.24671 5.90466 7.24216 5.80241 7.24216 5.70016C7.24216 5.59791 7.24898 5.49566 7.25807 5.39341C7.25352 5.43204 7.24898 5.4593 7.24444 5.4843L7.24441 5.48427ZM21.4298 18.4635C21.4298 18.5862 21.3253 18.6907 21.2026 18.6907H21.173C20.9481 18.6975 20.7208 18.693 20.4959 18.693H3.79719C3.67449 18.693 3.56996 18.5839 3.56996 18.4612V15.4119C3.56996 15.2892 3.67449 15.1824 3.79719 15.1824C3.80628 15.1824 3.81764 15.1801 3.82673 15.1801C4.05168 15.1733 4.27891 15.1755 4.50386 15.1755H21.2026C21.298 15.1755 21.3616 15.2233 21.3957 15.2892C21.4162 15.3187 21.4298 15.3573 21.4298 15.4028L21.4298 18.4635Z" fill="#0B3275"></path></svg>