<svg width="24" height="24" viewBox="0 0 24 24" fill="none" xmlns="http://www.w3.org/2000/svg"><path d="M12 7.19336C10.7249 7.19336 9.5022 7.69995 8.60049 8.60146C7.69893 9.50317 7.19238 10.7259 7.19238 12.001C7.19238 13.2761 7.69897 14.4988 8.60049 15.4005C9.5022 16.3021 10.7249 16.8087 12 16.8087C13.2752 16.8087 14.4979 16.3021 15.3996 15.4005C16.3011 14.4988 16.8077 13.2761 16.8077 12.001C16.8061 10.7264 16.2991 9.5044 15.3979 8.60317C14.4966 7.70193 13.2747 7.19491 12 7.19336ZM15.2345 10.5813L11.4043 14.4117C11.2729 14.543 11.0946 14.6168 10.9088 14.6168C10.723 14.6168 10.5448 14.543 10.4134 14.4117L8.76529 12.7637H8.76544C8.63399 12.6322 8.56021 12.454 8.56021 12.2681C8.56021 12.0823 8.63399 11.9041 8.76544 11.7727C8.89689 11.6413 9.07515 11.5675 9.261 11.5675C9.44686 11.5675 9.62512 11.6414 9.7564 11.7729L10.9089 12.9254L14.2444 9.59031C14.3757 9.4584 14.5542 9.38415 14.7403 9.38384C14.9265 9.38353 15.1051 9.45747 15.2367 9.58907C15.3683 9.72068 15.4422 9.89925 15.4419 10.0854C15.4417 10.2716 15.3673 10.45 15.2354 10.5813L15.2345 10.5813Z" fill="#0B3275"></path><path d="M21.1189 13.6716C21.5111 13.2413 22 12.7061 22 12C22 11.2939 21.5111 10.7587 21.1189 10.3287C20.9225 10.1433 20.759 9.9261 20.6348 9.68618C20.617 9.40251 20.6497 9.11776 20.7316 8.84554C20.8591 8.25728 21.0038 7.59057 20.6612 6.99842C20.3143 6.39838 19.6592 6.19068 19.0812 6.00667C18.8101 5.94327 18.5524 5.83291 18.3196 5.68037C18.1671 5.44755 18.0567 5.18993 17.9933 4.91882C17.8095 4.34108 17.6012 3.68572 17.0016 3.33881C16.4093 2.99608 15.7427 3.14086 15.1545 3.26844C14.8821 3.35029 14.5974 3.38299 14.3135 3.36517C14.0739 3.241 13.8569 3.07747 13.6716 2.88108C13.2413 2.4889 12.7061 2 12 2C11.2939 2 10.7587 2.48889 10.3287 2.88108C10.1433 3.07747 9.9261 3.24101 9.68618 3.36517C9.40251 3.38299 9.11776 3.35029 8.84554 3.26844C8.25728 3.14087 7.59057 2.99624 6.99842 3.33881C6.39838 3.68573 6.19068 4.3408 6.00667 4.91882C5.94327 5.18993 5.83291 5.44756 5.68037 5.68037C5.44755 5.83291 5.18993 5.94327 4.91882 6.00667C4.34108 6.19052 3.68572 6.39885 3.33881 6.99842C2.99608 7.59073 3.14086 8.25728 3.26844 8.84554C3.35029 9.11789 3.38299 9.40264 3.36517 9.68646C3.241 9.9261 3.07731 10.1433 2.88108 10.3287C2.4889 10.7587 2 11.2939 2 12C2 12.7061 2.48889 13.2413 2.88108 13.6713C3.07747 13.8567 3.24101 14.0739 3.36517 14.3138C3.38299 14.5975 3.35029 14.8822 3.26844 15.1545C3.14087 15.7427 2.99624 16.4094 3.33881 17.0016C3.68573 17.6016 4.3408 17.8093 4.91882 17.9933C5.18993 18.0567 5.44756 18.1671 5.68037 18.3196C5.83291 18.5525 5.94327 18.8101 6.00667 19.0812C6.19052 19.6589 6.39885 20.3143 6.99842 20.6612C7.59073 21.0036 8.25728 20.8591 8.84554 20.7316C9.11774 20.6497 9.40249 20.617 9.68618 20.6348C9.92614 20.759 10.1433 20.9225 10.3287 21.1189C10.7587 21.5111 11.2939 22 12 22C12.7061 22 13.2413 21.5111 13.6716 21.1189C13.8569 20.9225 14.0739 20.7588 14.3139 20.6348C14.5975 20.617 14.8823 20.6497 15.1545 20.7316C15.7428 20.8591 16.4095 21.0038 17.0016 20.6612C17.6017 20.3143 17.8094 19.6592 17.9934 19.0812C18.0568 18.8101 18.1671 18.5524 18.3197 18.3196C18.5525 18.1671 18.8101 18.0567 19.0812 17.9933C19.659 17.8095 20.3143 17.6012 20.6612 17.0016C21.004 16.4093 20.8592 15.7427 20.7316 15.1545C20.6498 14.8821 20.617 14.5974 20.6349 14.3135C20.759 14.0739 20.9226 13.8569 21.119 13.6716H21.1189ZM11.9998 18.209C10.3531 18.209 8.77389 17.5548 7.60932 16.3904C6.44476 15.2259 5.79074 13.6467 5.79074 11.9999C5.79074 10.3531 6.44487 8.77395 7.60932 7.60938C8.77378 6.44481 10.353 5.7908 11.9998 5.7908C13.6466 5.7908 15.2258 6.44493 16.3903 7.60938C17.5549 8.77383 18.2089 10.3531 18.2089 11.9999C18.207 13.6459 17.5523 15.2243 16.3883 16.3884C15.2243 17.5524 13.646 18.2071 11.9998 18.209L11.9998 18.209Z" fill="#0B3275"></path></svg>